<svg width="139" height="124" xmlns="http://www.w3.org/2000/svg">
<rect x="69" y="0" width="2" height="1" fill="black"/>
<rect x="67" y="1" width="6" height="1" fill="black"/>
<rect x="65" y="2" width="10" height="1" fill="black"/>
<rect x="63" y="3" width="14" height="1" fill="black"/>
<rect x="61" y="4" width="18" height="1" fill="black"/>
<rect x="59" y="5" width="22" height="1" fill="black"/>
<rect x="57" y="6" width="26" height="1" fill="black"/>
<rect x="55" y="7" width="30" height="1" fill="black"/>
<rect x="53" y="8" width="34" height="1" fill="black"/>
<rect x="51" y="9" width="38" height="1" fill="black"/>
<rect x="49" y="10" width="42" height="1" fill="black"/>
<rect x="47" y="11" width="46" height="1" fill="black"/>
<rect x="45" y="12" width="50" height="1" fill="black"/>
<rect x="43" y="13" width="54" height="1" fill="black"/>
<rect x="41" y="14" width="58" height="1" fill="black"/>
<rect x="39" y="15" width="62" height="1" fill="black"/>
<rect x="37" y="16" width="66" height="1" fill="black"/>
<rect x="35" y="17" width="70" height="1" fill="black"/>
<rect x="33" y="18" width="74" height="1" fill="black"/>
<rect x="31" y="19" width="78" height="1" fill="black"/>
<rect x="29" y="20" width="82" height="1" fill="black"/>
<rect x="27" y="21" width="86" height="1" fill="black"/>
<rect x="25" y="22" width="90" height="1" fill="black"/>
<rect x="23" y="23" width="94" height="1" fill="black"/>
<rect x="21" y="24" width="98" height="1" fill="black"/>
<rect x="19" y="25" width="102" height="1" fill="black"/>
<rect x="17" y="26" width="106" height="1" fill="black"/>
<rect x="15" y="27" width="110" height="1" fill="black"/>
<rect x="13" y="28" width="114" height="1" fill="black"/>
<rect x="11" y="29" width="118" height="1" fill="black"/>
<rect x="9" y="30" width="122" height="1" fill="black"/>
<rect x="7" y="31" width="126" height="1" fill="black"/>
<rect x="5" y="32" width="130" height="1" fill="black"/>
<rect x="3" y="33" width="134" height="1" fill="black"/>
<rect x="0" y="34" width="139" height="1" fill="black"/>
<rect x="0" y="35" width="139" height="1" fill="black"/>
<rect x="0" y="36" width="139" height="1" fill="black"/>
<rect x="0" y="37" width="139" height="1" fill="black"/>
<rect x="0" y="38" width="139" height="1" fill="black"/>
<rect x="0" y="39" width="139" height="1" fill="black"/>
<rect x="1" y="40" width="138" height="1" fill="black"/>
<rect x="3" y="41" width="136" height="1" fill="black"/>
<rect x="5" y="42" width="132" height="1" fill="black"/>
<rect x="6" y="43" width="129" height="1" fill="black"/>
<rect x="6" y="44" width="128" height="1" fill="black"/>
<rect x="6" y="45" width="128" height="1" fill="black"/>
<rect x="6" y="46" width="128" height="1" fill="black"/>
<rect x="6" y="47" width="128" height="1" fill="black"/>
<rect x="6" y="48" width="128" height="1" fill="black"/>
<rect x="6" y="49" width="128" height="1" fill="black"/>
<rect x="6" y="50" width="128" height="1" fill="black"/>
<rect x="6" y="51" width="128" height="1" fill="black"/>
<rect x="6" y="52" width="128" height="1" fill="black"/>
<rect x="6" y="53" width="128" height="1" fill="black"/>
<rect x="6" y="54" width="128" height="1" fill="black"/>
<rect x="6" y="55" width="128" height="1" fill="black"/>
<rect x="6" y="56" width="128" height="1" fill="black"/>
<rect x="6" y="57" width="128" height="1" fill="black"/>
<rect x="6" y="58" width="128" height="1" fill="black"/>
<rect x="6" y="59" width="128" height="1" fill="black"/>
<rect x="6" y="60" width="128" height="1" fill="black"/>
<rect x="6" y="61" width="128" height="1" fill="black"/>
<rect x="6" y="62" width="128" height="1" fill="black"/>
<rect x="6" y="63" width="128" height="1" fill="black"/>
<rect x="6" y="64" width="128" height="1" fill="black"/>
<rect x="6" y="65" width="128" height="1" fill="black"/>
<rect x="6" y="66" width="128" height="1" fill="black"/>
<rect x="6" y="67" width="128" height="1" fill="black"/>
<rect x="6" y="68" width="128" height="1" fill="black"/>
<rect x="6" y="69" width="128" height="1" fill="black"/>
<rect x="6" y="70" width="128" height="1" fill="black"/>
<rect x="6" y="71" width="128" height="1" fill="black"/>
<rect x="6" y="72" width="128" height="1" fill="black"/>
<rect x="6" y="73" width="128" height="1" fill="black"/>
<rect x="6" y="74" width="128" height="1" fill="black"/>
<rect x="6" y="75" width="128" height="1" fill="black"/>
<rect x="6" y="76" width="128" height="1" fill="black"/>
<rect x="6" y="77" width="128" height="1" fill="black"/>
<rect x="6" y="78" width="128" height="1" fill="black"/>
<rect x="6" y="79" width="128" height="1" fill="black"/>
<rect x="6" y="80" width="128" height="1" fill="black"/>
<rect x="6" y="81" width="128" height="1" fill="black"/>
<rect x="6" y="82" width="128" height="1" fill="black"/>
<rect x="6" y="83" width="128" height="1" fill="black"/>
<rect x="6" y="84" width="128" height="1" fill="black"/>
<rect x="6" y="85" width="128" height="1" fill="black"/>
<rect x="6" y="86" width="128" height="1" fill="black"/>
<rect x="6" y="87" width="128" height="1" fill="black"/>
<rect x="6" y="88" width="128" height="1" fill="black"/>
<rect x="6" y="89" width="128" height="1" fill="black"/>
<rect x="6" y="90" width="128" height="1" fill="black"/>
<rect x="6" y="91" width="128" height="1" fill="black"/>
<rect x="6" y="92" width="128" height="1" fill="black"/>
<rect x="6" y="93" width="128" height="1" fill="black"/>
<rect x="6" y="94" width="128" height="1" fill="black"/>
<rect x="6" y="95" width="128" height="1" fill="black"/>
<rect x="4" y="96" width="132" height="1" fill="black"/>
<rect x="2" y="97" width="136" height="1" fill="black"/>
<rect x="2" y="98" width="137" height="1" fill="black"/>
<rect x="2" y="99" width="137" height="1" fill="black"/>
<rect x="2" y="100" width="137" height="1" fill="black"/>
<rect x="2" y="101" width="137" height="1" fill="black"/>
<rect x="2" y="102" width="137" height="1" fill="black"/>
<rect x="4" y="103" width="134" height="1" fill="black"/>
<rect x="6" y="104" width="130" height="1" fill="black"/>
<rect x="8" y="105" width="127" height="1" fill="black"/>
<rect x="10" y="106" width="125" height="1" fill="black"/>
<rect x="12" y="107" width="123" height="1" fill="black"/>
<rect x="14" y="108" width="61" height="1" fill="black"/>
<rect x="77" y="108" width="58" height="1" fill="black"/>
<rect x="16" y="109" width="57" height="1" fill="black"/>
<rect x="79" y="109" width="56" height="1" fill="black"/>
<rect x="18" y="110" width="53" height="1" fill="black"/>
<rect x="81" y="110" width="53" height="1" fill="black"/>
<rect x="20" y="111" width="49" height="1" fill="black"/>
<rect x="83" y="111" width="44" height="1" fill="black"/>
<rect x="129" y="111" width="3" height="1" fill="black"/>
<rect x="22" y="112" width="45" height="1" fill="black"/>
<rect x="85" y="112" width="40" height="1" fill="black"/>
<rect x="24" y="113" width="41" height="1" fill="black"/>
<rect x="87" y="113" width="36" height="1" fill="black"/>
<rect x="26" y="114" width="37" height="1" fill="black"/>
<rect x="89" y="114" width="32" height="1" fill="black"/>
<rect x="28" y="115" width="33" height="1" fill="black"/>
<rect x="91" y="115" width="28" height="1" fill="black"/>
<rect x="30" y="116" width="29" height="1" fill="black"/>
<rect x="93" y="116" width="24" height="1" fill="black"/>
<rect x="32" y="117" width="25" height="1" fill="black"/>
<rect x="95" y="117" width="22" height="1" fill="black"/>
<rect x="34" y="118" width="21" height="1" fill="black"/>
<rect x="97" y="118" width="19" height="1" fill="black"/>
<rect x="36" y="119" width="17" height="1" fill="black"/>
<rect x="99" y="119" width="7" height="1" fill="black"/>
<rect x="108" y="119" width="6" height="1" fill="black"/>
<rect x="38" y="120" width="13" height="1" fill="black"/>
<rect x="40" y="121" width="9" height="1" fill="black"/>
<rect x="42" y="122" width="5" height="1" fill="black"/>
<rect x="44" y="123" width="1" height="1" fill="black"/>
</svg>