<svg width="108" height="121" xmlns="http://www.w3.org/2000/svg">
<rect x="83" y="0" width="1" height="1" fill="black"/>
<rect x="81" y="1" width="4" height="1" fill="black"/>
<rect x="79" y="2" width="7" height="1" fill="black"/>
<rect x="77" y="3" width="9" height="1" fill="black"/>
<rect x="75" y="4" width="12" height="1" fill="black"/>
<rect x="73" y="5" width="15" height="1" fill="black"/>
<rect x="71" y="6" width="17" height="1" fill="black"/>
<rect x="69" y="7" width="20" height="1" fill="black"/>
<rect x="67" y="8" width="23" height="1" fill="black"/>
<rect x="65" y="9" width="25" height="1" fill="black"/>
<rect x="63" y="10" width="28" height="1" fill="black"/>
<rect x="24" y="11" width="2" height="1" fill="black"/>
<rect x="61" y="11" width="30" height="1" fill="black"/>
<rect x="24" y="12" width="4" height="1" fill="black"/>
<rect x="59" y="12" width="33" height="1" fill="black"/>
<rect x="23" y="13" width="7" height="1" fill="black"/>
<rect x="57" y="13" width="36" height="1" fill="black"/>
<rect x="23" y="14" width="9" height="1" fill="black"/>
<rect x="55" y="14" width="38" height="1" fill="black"/>
<rect x="22" y="15" width="12" height="1" fill="black"/>
<rect x="53" y="15" width="41" height="1" fill="black"/>
<rect x="22" y="16" width="14" height="1" fill="black"/>
<rect x="51" y="16" width="43" height="1" fill="black"/>
<rect x="21" y="17" width="17" height="1" fill="black"/>
<rect x="49" y="17" width="46" height="1" fill="black"/>
<rect x="21" y="18" width="19" height="1" fill="black"/>
<rect x="47" y="18" width="48" height="1" fill="black"/>
<rect x="20" y="19" width="22" height="1" fill="black"/>
<rect x="45" y="19" width="51" height="1" fill="black"/>
<rect x="20" y="20" width="76" height="1" fill="black"/>
<rect x="19" y="21" width="78" height="1" fill="black"/>
<rect x="19" y="22" width="79" height="1" fill="black"/>
<rect x="18" y="23" width="80" height="1" fill="black"/>
<rect x="18" y="24" width="81" height="1" fill="black"/>
<rect x="17" y="25" width="82" height="1" fill="black"/>
<rect x="17" y="26" width="83" height="1" fill="black"/>
<rect x="16" y="27" width="85" height="1" fill="black"/>
<rect x="16" y="28" width="85" height="1" fill="black"/>
<rect x="15" y="29" width="87" height="1" fill="black"/>
<rect x="15" y="30" width="87" height="1" fill="black"/>
<rect x="14" y="31" width="89" height="1" fill="black"/>
<rect x="14" y="32" width="89" height="1" fill="black"/>
<rect x="13" y="33" width="91" height="1" fill="black"/>
<rect x="13" y="34" width="92" height="1" fill="black"/>
<rect x="12" y="35" width="93" height="1" fill="black"/>
<rect x="12" y="36" width="94" height="1" fill="black"/>
<rect x="11" y="37" width="95" height="1" fill="black"/>
<rect x="11" y="38" width="96" height="1" fill="black"/>
<rect x="11" y="39" width="97" height="1" fill="black"/>
<rect x="11" y="40" width="97" height="1" fill="black"/>
<rect x="11" y="41" width="97" height="1" fill="black"/>
<rect x="10" y="42" width="98" height="1" fill="black"/>
<rect x="9" y="43" width="99" height="1" fill="black"/>
<rect x="8" y="44" width="100" height="1" fill="black"/>
<rect x="7" y="45" width="101" height="1" fill="black"/>
<rect x="6" y="46" width="102" height="1" fill="black"/>
<rect x="5" y="47" width="103" height="1" fill="black"/>
<rect x="4" y="48" width="103" height="1" fill="black"/>
<rect x="3" y="49" width="102" height="1" fill="black"/>
<rect x="2" y="50" width="103" height="1" fill="black"/>
<rect x="1" y="51" width="104" height="1" fill="black"/>
<rect x="0" y="52" width="105" height="1" fill="black"/>
<rect x="0" y="53" width="105" height="1" fill="black"/>
<rect x="0" y="54" width="105" height="1" fill="black"/>
<rect x="0" y="55" width="105" height="1" fill="black"/>
<rect x="0" y="56" width="105" height="1" fill="black"/>
<rect x="1" y="57" width="104" height="1" fill="black"/>
<rect x="4" y="58" width="101" height="1" fill="black"/>
<rect x="4" y="59" width="101" height="1" fill="black"/>
<rect x="4" y="60" width="101" height="1" fill="black"/>
<rect x="4" y="61" width="101" height="1" fill="black"/>
<rect x="4" y="62" width="101" height="1" fill="black"/>
<rect x="4" y="63" width="101" height="1" fill="black"/>
<rect x="4" y="64" width="101" height="1" fill="black"/>
<rect x="4" y="65" width="101" height="1" fill="black"/>
<rect x="4" y="66" width="101" height="1" fill="black"/>
<rect x="4" y="67" width="101" height="1" fill="black"/>
<rect x="4" y="68" width="101" height="1" fill="black"/>
<rect x="4" y="69" width="101" height="1" fill="black"/>
<rect x="4" y="70" width="101" height="1" fill="black"/>
<rect x="4" y="71" width="101" height="1" fill="black"/>
<rect x="4" y="72" width="101" height="1" fill="black"/>
<rect x="4" y="73" width="101" height="1" fill="black"/>
<rect x="4" y="74" width="101" height="1" fill="black"/>
<rect x="4" y="75" width="101" height="1" fill="black"/>
<rect x="4" y="76" width="101" height="1" fill="black"/>
<rect x="4" y="77" width="101" height="1" fill="black"/>
<rect x="4" y="78" width="101" height="1" fill="black"/>
<rect x="4" y="79" width="101" height="1" fill="black"/>
<rect x="4" y="80" width="101" height="1" fill="black"/>
<rect x="4" y="81" width="101" height="1" fill="black"/>
<rect x="4" y="82" width="101" height="1" fill="black"/>
<rect x="4" y="83" width="101" height="1" fill="black"/>
<rect x="4" y="84" width="101" height="1" fill="black"/>
<rect x="4" y="85" width="101" height="1" fill="black"/>
<rect x="4" y="86" width="101" height="1" fill="black"/>
<rect x="4" y="87" width="101" height="1" fill="black"/>
<rect x="4" y="88" width="101" height="1" fill="black"/>
<rect x="4" y="89" width="101" height="1" fill="black"/>
<rect x="4" y="90" width="101" height="1" fill="black"/>
<rect x="4" y="91" width="101" height="1" fill="black"/>
<rect x="4" y="92" width="101" height="1" fill="black"/>
<rect x="4" y="93" width="99" height="1" fill="black"/>
<rect x="4" y="94" width="97" height="1" fill="black"/>
<rect x="4" y="95" width="95" height="1" fill="black"/>
<rect x="4" y="96" width="93" height="1" fill="black"/>
<rect x="4" y="97" width="91" height="1" fill="black"/>
<rect x="4" y="98" width="87" height="1" fill="black"/>
<rect x="4" y="99" width="85" height="1" fill="black"/>
<rect x="4" y="100" width="83" height="1" fill="black"/>
<rect x="6" y="101" width="79" height="1" fill="black"/>
<rect x="8" y="102" width="75" height="1" fill="black"/>
<rect x="10" y="103" width="71" height="1" fill="black"/>
<rect x="12" y="104" width="67" height="1" fill="black"/>
<rect x="14" y="105" width="63" height="1" fill="black"/>
<rect x="16" y="106" width="59" height="1" fill="black"/>
<rect x="18" y="107" width="56" height="1" fill="black"/>
<rect x="20" y="108" width="53" height="1" fill="black"/>
<rect x="22" y="109" width="49" height="1" fill="black"/>
<rect x="24" y="110" width="45" height="1" fill="black"/>
<rect x="26" y="111" width="41" height="1" fill="black"/>
<rect x="28" y="112" width="37" height="1" fill="black"/>
<rect x="30" y="113" width="33" height="1" fill="black"/>
<rect x="32" y="114" width="29" height="1" fill="black"/>
<rect x="34" y="115" width="25" height="1" fill="black"/>
<rect x="36" y="116" width="21" height="1" fill="black"/>
<rect x="38" y="117" width="17" height="1" fill="black"/>
<rect x="40" y="118" width="13" height="1" fill="black"/>
<rect x="42" y="119" width="9" height="1" fill="black"/>
<rect x="44" y="120" width="5" height="1" fill="black"/>
</svg>