<svg width="120" height="118" xmlns="http://www.w3.org/2000/svg">
<rect x="90" y="0" width="3" height="1" fill="black"/>
<rect x="88" y="1" width="7" height="1" fill="black"/>
<rect x="86" y="2" width="11" height="1" fill="black"/>
<rect x="84" y="3" width="15" height="1" fill="black"/>
<rect x="51" y="4" width="3" height="1" fill="black"/>
<rect x="82" y="4" width="19" height="1" fill="black"/>
<rect x="48" y="5" width="11" height="1" fill="black"/>
<rect x="80" y="5" width="23" height="1" fill="black"/>
<rect x="45" y="6" width="16" height="1" fill="black"/>
<rect x="78" y="6" width="27" height="1" fill="black"/>
<rect x="43" y="7" width="20" height="1" fill="black"/>
<rect x="76" y="7" width="31" height="1" fill="black"/>
<rect x="41" y="8" width="24" height="1" fill="black"/>
<rect x="74" y="8" width="35" height="1" fill="black"/>
<rect x="40" y="9" width="27" height="1" fill="black"/>
<rect x="72" y="9" width="39" height="1" fill="black"/>
<rect x="39" y="10" width="30" height="1" fill="black"/>
<rect x="70" y="10" width="43" height="1" fill="black"/>
<rect x="38" y="11" width="77" height="1" fill="black"/>
<rect x="37" y="12" width="80" height="1" fill="black"/>
<rect x="36" y="13" width="83" height="1" fill="black"/>
<rect x="35" y="14" width="85" height="1" fill="black"/>
<rect x="34" y="15" width="86" height="1" fill="black"/>
<rect x="33" y="16" width="87" height="1" fill="black"/>
<rect x="33" y="17" width="87" height="1" fill="black"/>
<rect x="32" y="18" width="88" height="1" fill="black"/>
<rect x="32" y="19" width="88" height="1" fill="black"/>
<rect x="31" y="20" width="88" height="1" fill="black"/>
<rect x="31" y="21" width="88" height="1" fill="black"/>
<rect x="30" y="22" width="89" height="1" fill="black"/>
<rect x="30" y="23" width="89" height="1" fill="black"/>
<rect x="29" y="24" width="90" height="1" fill="black"/>
<rect x="29" y="25" width="90" height="1" fill="black"/>
<rect x="29" y="26" width="90" height="1" fill="black"/>
<rect x="29" y="27" width="90" height="1" fill="black"/>
<rect x="28" y="28" width="91" height="1" fill="black"/>
<rect x="28" y="29" width="91" height="1" fill="black"/>
<rect x="28" y="30" width="91" height="1" fill="black"/>
<rect x="28" y="31" width="91" height="1" fill="black"/>
<rect x="26" y="32" width="93" height="1" fill="black"/>
<rect x="24" y="33" width="95" height="1" fill="black"/>
<rect x="22" y="34" width="97" height="1" fill="black"/>
<rect x="20" y="35" width="99" height="1" fill="black"/>
<rect x="18" y="36" width="101" height="1" fill="black"/>
<rect x="16" y="37" width="103" height="1" fill="black"/>
<rect x="14" y="38" width="105" height="1" fill="black"/>
<rect x="12" y="39" width="107" height="1" fill="black"/>
<rect x="10" y="40" width="109" height="1" fill="black"/>
<rect x="8" y="41" width="111" height="1" fill="black"/>
<rect x="6" y="42" width="113" height="1" fill="black"/>
<rect x="4" y="43" width="115" height="1" fill="black"/>
<rect x="2" y="44" width="117" height="1" fill="black"/>
<rect x="0" y="45" width="119" height="1" fill="black"/>
<rect x="0" y="46" width="119" height="1" fill="black"/>
<rect x="1" y="47" width="118" height="1" fill="black"/>
<rect x="1" y="48" width="118" height="1" fill="black"/>
<rect x="1" y="49" width="118" height="1" fill="black"/>
<rect x="1" y="50" width="118" height="1" fill="black"/>
<rect x="1" y="51" width="118" height="1" fill="black"/>
<rect x="1" y="52" width="118" height="1" fill="black"/>
<rect x="1" y="53" width="118" height="1" fill="black"/>
<rect x="1" y="54" width="118" height="1" fill="black"/>
<rect x="1" y="55" width="118" height="1" fill="black"/>
<rect x="1" y="56" width="118" height="1" fill="black"/>
<rect x="1" y="57" width="118" height="1" fill="black"/>
<rect x="1" y="58" width="118" height="1" fill="black"/>
<rect x="1" y="59" width="118" height="1" fill="black"/>
<rect x="1" y="60" width="118" height="1" fill="black"/>
<rect x="1" y="61" width="118" height="1" fill="black"/>
<rect x="1" y="62" width="118" height="1" fill="black"/>
<rect x="1" y="63" width="118" height="1" fill="black"/>
<rect x="1" y="64" width="118" height="1" fill="black"/>
<rect x="1" y="65" width="118" height="1" fill="black"/>
<rect x="1" y="66" width="118" height="1" fill="black"/>
<rect x="1" y="67" width="118" height="1" fill="black"/>
<rect x="1" y="68" width="118" height="1" fill="black"/>
<rect x="1" y="69" width="118" height="1" fill="black"/>
<rect x="1" y="70" width="118" height="1" fill="black"/>
<rect x="1" y="71" width="118" height="1" fill="black"/>
<rect x="1" y="72" width="119" height="1" fill="black"/>
<rect x="1" y="73" width="119" height="1" fill="black"/>
<rect x="1" y="74" width="119" height="1" fill="black"/>
<rect x="1" y="75" width="119" height="1" fill="black"/>
<rect x="1" y="76" width="118" height="1" fill="black"/>
<rect x="1" y="77" width="116" height="1" fill="black"/>
<rect x="1" y="78" width="116" height="1" fill="black"/>
<rect x="1" y="79" width="116" height="1" fill="black"/>
<rect x="1" y="80" width="116" height="1" fill="black"/>
<rect x="1" y="81" width="116" height="1" fill="black"/>
<rect x="1" y="82" width="116" height="1" fill="black"/>
<rect x="1" y="83" width="116" height="1" fill="black"/>
<rect x="1" y="84" width="116" height="1" fill="black"/>
<rect x="1" y="85" width="116" height="1" fill="black"/>
<rect x="1" y="86" width="116" height="1" fill="black"/>
<rect x="1" y="87" width="116" height="1" fill="black"/>
<rect x="1" y="88" width="116" height="1" fill="black"/>
<rect x="1" y="89" width="116" height="1" fill="black"/>
<rect x="1" y="90" width="116" height="1" fill="black"/>
<rect x="1" y="91" width="116" height="1" fill="black"/>
<rect x="1" y="92" width="116" height="1" fill="black"/>
<rect x="1" y="93" width="116" height="1" fill="black"/>
<rect x="1" y="94" width="118" height="1" fill="black"/>
<rect x="1" y="95" width="119" height="1" fill="black"/>
<rect x="1" y="96" width="119" height="1" fill="black"/>
<rect x="1" y="97" width="119" height="1" fill="black"/>
<rect x="1" y="98" width="119" height="1" fill="black"/>
<rect x="0" y="99" width="105" height="1" fill="black"/>
<rect x="107" y="99" width="13" height="1" fill="black"/>
<rect x="0" y="100" width="104" height="1" fill="black"/>
<rect x="108" y="100" width="11" height="1" fill="black"/>
<rect x="0" y="101" width="102" height="1" fill="black"/>
<rect x="110" y="101" width="7" height="1" fill="black"/>
<rect x="0" y="102" width="47" height="1" fill="black"/>
<rect x="49" y="102" width="51" height="1" fill="black"/>
<rect x="0" y="103" width="46" height="1" fill="black"/>
<rect x="51" y="103" width="47" height="1" fill="black"/>
<rect x="2" y="104" width="44" height="1" fill="black"/>
<rect x="53" y="104" width="43" height="1" fill="black"/>
<rect x="4" y="105" width="41" height="1" fill="black"/>
<rect x="55" y="105" width="5" height="1" fill="black"/>
<rect x="62" y="105" width="32" height="1" fill="black"/>
<rect x="6" y="106" width="39" height="1" fill="black"/>
<rect x="57" y="106" width="1" height="1" fill="black"/>
<rect x="64" y="106" width="28" height="1" fill="black"/>
<rect x="8" y="107" width="36" height="1" fill="black"/>
<rect x="66" y="107" width="24" height="1" fill="black"/>
<rect x="10" y="108" width="34" height="1" fill="black"/>
<rect x="68" y="108" width="21" height="1" fill="black"/>
<rect x="12" y="109" width="31" height="1" fill="black"/>
<rect x="70" y="109" width="20" height="1" fill="black"/>
<rect x="14" y="110" width="29" height="1" fill="black"/>
<rect x="72" y="110" width="19" height="1" fill="black"/>
<rect x="16" y="111" width="26" height="1" fill="black"/>
<rect x="74" y="111" width="17" height="1" fill="black"/>
<rect x="18" y="112" width="24" height="1" fill="black"/>
<rect x="76" y="112" width="15" height="1" fill="black"/>
<rect x="20" y="113" width="21" height="1" fill="black"/>
<rect x="77" y="113" width="14" height="1" fill="black"/>
<rect x="22" y="114" width="18" height="1" fill="black"/>
<rect x="78" y="114" width="13" height="1" fill="black"/>
<rect x="24" y="115" width="16" height="1" fill="black"/>
<rect x="80" y="115" width="9" height="1" fill="black"/>
<rect x="26" y="116" width="12" height="1" fill="black"/>
<rect x="82" y="116" width="5" height="1" fill="black"/>
<rect x="28" y="117" width="8" height="1" fill="black"/>
<rect x="84" y="117" width="1" height="1" fill="black"/>
</svg>