<svg width="133" height="134" xmlns="http://www.w3.org/2000/svg">
<rect x="64" y="0" width="2" height="1" fill="black"/>
<rect x="63" y="1" width="5" height="1" fill="black"/>
<rect x="63" y="2" width="7" height="1" fill="black"/>
<rect x="62" y="3" width="10" height="1" fill="black"/>
<rect x="62" y="4" width="12" height="1" fill="black"/>
<rect x="61" y="5" width="15" height="1" fill="black"/>
<rect x="61" y="6" width="17" height="1" fill="black"/>
<rect x="60" y="7" width="20" height="1" fill="black"/>
<rect x="60" y="8" width="22" height="1" fill="black"/>
<rect x="59" y="9" width="25" height="1" fill="black"/>
<rect x="59" y="10" width="27" height="1" fill="black"/>
<rect x="58" y="11" width="30" height="1" fill="black"/>
<rect x="58" y="12" width="32" height="1" fill="black"/>
<rect x="57" y="13" width="35" height="1" fill="black"/>
<rect x="57" y="14" width="37" height="1" fill="black"/>
<rect x="56" y="15" width="40" height="1" fill="black"/>
<rect x="56" y="16" width="42" height="1" fill="black"/>
<rect x="55" y="17" width="45" height="1" fill="black"/>
<rect x="55" y="18" width="47" height="1" fill="black"/>
<rect x="54" y="19" width="50" height="1" fill="black"/>
<rect x="54" y="20" width="52" height="1" fill="black"/>
<rect x="53" y="21" width="55" height="1" fill="black"/>
<rect x="53" y="22" width="57" height="1" fill="black"/>
<rect x="52" y="23" width="60" height="1" fill="black"/>
<rect x="16" y="24" width="2" height="1" fill="black"/>
<rect x="52" y="24" width="62" height="1" fill="black"/>
<rect x="15" y="25" width="5" height="1" fill="black"/>
<rect x="51" y="25" width="65" height="1" fill="black"/>
<rect x="15" y="26" width="7" height="1" fill="black"/>
<rect x="51" y="26" width="66" height="1" fill="black"/>
<rect x="14" y="27" width="10" height="1" fill="black"/>
<rect x="50" y="27" width="68" height="1" fill="black"/>
<rect x="14" y="28" width="12" height="1" fill="black"/>
<rect x="50" y="28" width="69" height="1" fill="black"/>
<rect x="13" y="29" width="15" height="1" fill="black"/>
<rect x="49" y="29" width="71" height="1" fill="black"/>
<rect x="13" y="30" width="17" height="1" fill="black"/>
<rect x="49" y="30" width="72" height="1" fill="black"/>
<rect x="12" y="31" width="20" height="1" fill="black"/>
<rect x="48" y="31" width="74" height="1" fill="black"/>
<rect x="12" y="32" width="22" height="1" fill="black"/>
<rect x="49" y="32" width="74" height="1" fill="black"/>
<rect x="11" y="33" width="25" height="1" fill="black"/>
<rect x="49" y="33" width="75" height="1" fill="black"/>
<rect x="11" y="34" width="27" height="1" fill="black"/>
<rect x="49" y="34" width="76" height="1" fill="black"/>
<rect x="10" y="35" width="30" height="1" fill="black"/>
<rect x="49" y="35" width="77" height="1" fill="black"/>
<rect x="10" y="36" width="32" height="1" fill="black"/>
<rect x="49" y="36" width="78" height="1" fill="black"/>
<rect x="9" y="37" width="35" height="1" fill="black"/>
<rect x="49" y="37" width="79" height="1" fill="black"/>
<rect x="9" y="38" width="37" height="1" fill="black"/>
<rect x="48" y="38" width="81" height="1" fill="black"/>
<rect x="8" y="39" width="122" height="1" fill="black"/>
<rect x="8" y="40" width="123" height="1" fill="black"/>
<rect x="7" y="41" width="125" height="1" fill="black"/>
<rect x="7" y="42" width="126" height="1" fill="black"/>
<rect x="6" y="43" width="127" height="1" fill="black"/>
<rect x="6" y="44" width="127" height="1" fill="black"/>
<rect x="5" y="45" width="128" height="1" fill="black"/>
<rect x="5" y="46" width="128" height="1" fill="black"/>
<rect x="4" y="47" width="129" height="1" fill="black"/>
<rect x="4" y="48" width="125" height="1" fill="black"/>
<rect x="130" y="48" width="1" height="1" fill="black"/>
<rect x="3" y="49" width="126" height="1" fill="black"/>
<rect x="3" y="50" width="126" height="1" fill="black"/>
<rect x="2" y="51" width="127" height="1" fill="black"/>
<rect x="2" y="52" width="127" height="1" fill="black"/>
<rect x="1" y="53" width="128" height="1" fill="black"/>
<rect x="1" y="54" width="128" height="1" fill="black"/>
<rect x="0" y="55" width="129" height="1" fill="black"/>
<rect x="0" y="56" width="129" height="1" fill="black"/>
<rect x="0" y="57" width="129" height="1" fill="black"/>
<rect x="0" y="58" width="129" height="1" fill="black"/>
<rect x="0" y="59" width="129" height="1" fill="black"/>
<rect x="0" y="60" width="129" height="1" fill="black"/>
<rect x="0" y="61" width="129" height="1" fill="black"/>
<rect x="1" y="62" width="128" height="1" fill="black"/>
<rect x="2" y="63" width="127" height="1" fill="black"/>
<rect x="4" y="64" width="125" height="1" fill="black"/>
<rect x="4" y="65" width="125" height="1" fill="black"/>
<rect x="4" y="66" width="125" height="1" fill="black"/>
<rect x="4" y="67" width="125" height="1" fill="black"/>
<rect x="4" y="68" width="125" height="1" fill="black"/>
<rect x="4" y="69" width="125" height="1" fill="black"/>
<rect x="4" y="70" width="125" height="1" fill="black"/>
<rect x="4" y="71" width="125" height="1" fill="black"/>
<rect x="4" y="72" width="125" height="1" fill="black"/>
<rect x="4" y="73" width="125" height="1" fill="black"/>
<rect x="4" y="74" width="125" height="1" fill="black"/>
<rect x="4" y="75" width="125" height="1" fill="black"/>
<rect x="4" y="76" width="125" height="1" fill="black"/>
<rect x="4" y="77" width="125" height="1" fill="black"/>
<rect x="4" y="78" width="125" height="1" fill="black"/>
<rect x="4" y="79" width="125" height="1" fill="black"/>
<rect x="4" y="80" width="125" height="1" fill="black"/>
<rect x="4" y="81" width="125" height="1" fill="black"/>
<rect x="4" y="82" width="125" height="1" fill="black"/>
<rect x="4" y="83" width="125" height="1" fill="black"/>
<rect x="4" y="84" width="125" height="1" fill="black"/>
<rect x="4" y="85" width="125" height="1" fill="black"/>
<rect x="4" y="86" width="125" height="1" fill="black"/>
<rect x="4" y="87" width="125" height="1" fill="black"/>
<rect x="4" y="88" width="125" height="1" fill="black"/>
<rect x="4" y="89" width="125" height="1" fill="black"/>
<rect x="4" y="90" width="126" height="1" fill="black"/>
<rect x="4" y="91" width="127" height="1" fill="black"/>
<rect x="4" y="92" width="127" height="1" fill="black"/>
<rect x="4" y="93" width="127" height="1" fill="black"/>
<rect x="4" y="94" width="127" height="1" fill="black"/>
<rect x="4" y="95" width="127" height="1" fill="black"/>
<rect x="4" y="96" width="125" height="1" fill="black"/>
<rect x="4" y="97" width="123" height="1" fill="black"/>
<rect x="4" y="98" width="121" height="1" fill="black"/>
<rect x="4" y="99" width="119" height="1" fill="black"/>
<rect x="4" y="100" width="117" height="1" fill="black"/>
<rect x="4" y="101" width="115" height="1" fill="black"/>
<rect x="4" y="102" width="113" height="1" fill="black"/>
<rect x="4" y="103" width="111" height="1" fill="black"/>
<rect x="3" y="104" width="110" height="1" fill="black"/>
<rect x="3" y="105" width="108" height="1" fill="black"/>
<rect x="3" y="106" width="89" height="1" fill="black"/>
<rect x="94" y="106" width="15" height="1" fill="black"/>
<rect x="3" y="107" width="87" height="1" fill="black"/>
<rect x="95" y="107" width="12" height="1" fill="black"/>
<rect x="3" y="108" width="85" height="1" fill="black"/>
<rect x="97" y="108" width="8" height="1" fill="black"/>
<rect x="3" y="109" width="83" height="1" fill="black"/>
<rect x="99" y="109" width="4" height="1" fill="black"/>
<rect x="5" y="110" width="79" height="1" fill="black"/>
<rect x="7" y="111" width="75" height="1" fill="black"/>
<rect x="9" y="112" width="72" height="1" fill="black"/>
<rect x="11" y="113" width="70" height="1" fill="black"/>
<rect x="13" y="114" width="69" height="1" fill="black"/>
<rect x="15" y="115" width="68" height="1" fill="black"/>
<rect x="17" y="116" width="66" height="1" fill="black"/>
<rect x="19" y="117" width="64" height="1" fill="black"/>
<rect x="21" y="118" width="62" height="1" fill="black"/>
<rect x="23" y="119" width="60" height="1" fill="black"/>
<rect x="25" y="120" width="56" height="1" fill="black"/>
<rect x="27" y="121" width="52" height="1" fill="black"/>
<rect x="29" y="122" width="48" height="1" fill="black"/>
<rect x="31" y="123" width="44" height="1" fill="black"/>
<rect x="33" y="124" width="40" height="1" fill="black"/>
<rect x="35" y="125" width="36" height="1" fill="black"/>
<rect x="37" y="126" width="32" height="1" fill="black"/>
<rect x="39" y="127" width="28" height="1" fill="black"/>
<rect x="41" y="128" width="24" height="1" fill="black"/>
<rect x="43" y="129" width="20" height="1" fill="black"/>
<rect x="45" y="130" width="16" height="1" fill="black"/>
<rect x="47" y="131" width="12" height="1" fill="black"/>
<rect x="49" y="132" width="8" height="1" fill="black"/>
<rect x="51" y="133" width="4" height="1" fill="black"/>
</svg>