<svg width="163" height="154" xmlns="http://www.w3.org/2000/svg">
<rect x="99" y="0" width="3" height="1" fill="black"/>
<rect x="97" y="1" width="6" height="1" fill="black"/>
<rect x="95" y="2" width="8" height="1" fill="black"/>
<rect x="93" y="3" width="11" height="1" fill="black"/>
<rect x="91" y="4" width="13" height="1" fill="black"/>
<rect x="74" y="5" width="2" height="1" fill="black"/>
<rect x="89" y="5" width="16" height="1" fill="black"/>
<rect x="73" y="6" width="5" height="1" fill="black"/>
<rect x="87" y="6" width="19" height="1" fill="black"/>
<rect x="72" y="7" width="8" height="1" fill="black"/>
<rect x="85" y="7" width="21" height="1" fill="black"/>
<rect x="71" y="8" width="11" height="1" fill="black"/>
<rect x="83" y="8" width="24" height="1" fill="black"/>
<rect x="70" y="9" width="37" height="1" fill="black"/>
<rect x="69" y="10" width="39" height="1" fill="black"/>
<rect x="68" y="11" width="40" height="1" fill="black"/>
<rect x="68" y="12" width="41" height="1" fill="black"/>
<rect x="68" y="13" width="41" height="1" fill="black"/>
<rect x="68" y="14" width="41" height="1" fill="black"/>
<rect x="68" y="15" width="41" height="1" fill="black"/>
<rect x="67" y="16" width="42" height="1" fill="black"/>
<rect x="65" y="17" width="44" height="1" fill="black"/>
<rect x="47" y="18" width="2" height="1" fill="black"/>
<rect x="63" y="18" width="46" height="1" fill="black"/>
<rect x="46" y="19" width="5" height="1" fill="black"/>
<rect x="61" y="19" width="48" height="1" fill="black"/>
<rect x="45" y="20" width="8" height="1" fill="black"/>
<rect x="59" y="20" width="50" height="1" fill="black"/>
<rect x="36" y="21" width="2" height="1" fill="black"/>
<rect x="44" y="21" width="11" height="1" fill="black"/>
<rect x="57" y="21" width="53" height="1" fill="black"/>
<rect x="143" y="21" width="2" height="1" fill="black"/>
<rect x="34" y="22" width="6" height="1" fill="black"/>
<rect x="43" y="22" width="67" height="1" fill="black"/>
<rect x="141" y="22" width="4" height="1" fill="black"/>
<rect x="32" y="23" width="79" height="1" fill="black"/>
<rect x="139" y="23" width="7" height="1" fill="black"/>
<rect x="30" y="24" width="81" height="1" fill="black"/>
<rect x="137" y="24" width="9" height="1" fill="black"/>
<rect x="28" y="25" width="84" height="1" fill="black"/>
<rect x="135" y="25" width="12" height="1" fill="black"/>
<rect x="26" y="26" width="87" height="1" fill="black"/>
<rect x="133" y="26" width="15" height="1" fill="black"/>
<rect x="24" y="27" width="89" height="1" fill="black"/>
<rect x="131" y="27" width="17" height="1" fill="black"/>
<rect x="22" y="28" width="92" height="1" fill="black"/>
<rect x="129" y="28" width="20" height="1" fill="black"/>
<rect x="20" y="29" width="94" height="1" fill="black"/>
<rect x="127" y="29" width="22" height="1" fill="black"/>
<rect x="18" y="30" width="97" height="1" fill="black"/>
<rect x="125" y="30" width="25" height="1" fill="black"/>
<rect x="16" y="31" width="99" height="1" fill="black"/>
<rect x="123" y="31" width="28" height="1" fill="black"/>
<rect x="15" y="32" width="101" height="1" fill="black"/>
<rect x="121" y="32" width="30" height="1" fill="black"/>
<rect x="14" y="33" width="103" height="1" fill="black"/>
<rect x="119" y="33" width="33" height="1" fill="black"/>
<rect x="12" y="34" width="140" height="1" fill="black"/>
<rect x="11" y="35" width="141" height="1" fill="black"/>
<rect x="10" y="36" width="142" height="1" fill="black"/>
<rect x="8" y="37" width="144" height="1" fill="black"/>
<rect x="7" y="38" width="145" height="1" fill="black"/>
<rect x="6" y="39" width="146" height="1" fill="black"/>
<rect x="4" y="40" width="148" height="1" fill="black"/>
<rect x="3" y="41" width="149" height="1" fill="black"/>
<rect x="2" y="42" width="151" height="1" fill="black"/>
<rect x="2" y="43" width="152" height="1" fill="black"/>
<rect x="4" y="44" width="151" height="1" fill="black"/>
<rect x="4" y="45" width="152" height="1" fill="black"/>
<rect x="2" y="46" width="154" height="1" fill="black"/>
<rect x="1" y="47" width="156" height="1" fill="black"/>
<rect x="0" y="48" width="158" height="1" fill="black"/>
<rect x="0" y="49" width="159" height="1" fill="black"/>
<rect x="0" y="50" width="159" height="1" fill="black"/>
<rect x="0" y="51" width="160" height="1" fill="black"/>
<rect x="0" y="52" width="161" height="1" fill="black"/>
<rect x="0" y="53" width="162" height="1" fill="black"/>
<rect x="0" y="54" width="162" height="1" fill="black"/>
<rect x="0" y="55" width="163" height="1" fill="black"/>
<rect x="0" y="56" width="163" height="1" fill="black"/>
<rect x="0" y="57" width="163" height="1" fill="black"/>
<rect x="0" y="58" width="163" height="1" fill="black"/>
<rect x="0" y="59" width="161" height="1" fill="black"/>
<rect x="0" y="60" width="160" height="1" fill="black"/>
<rect x="0" y="61" width="160" height="1" fill="black"/>
<rect x="0" y="62" width="160" height="1" fill="black"/>
<rect x="0" y="63" width="160" height="1" fill="black"/>
<rect x="0" y="64" width="160" height="1" fill="black"/>
<rect x="0" y="65" width="160" height="1" fill="black"/>
<rect x="0" y="66" width="160" height="1" fill="black"/>
<rect x="0" y="67" width="160" height="1" fill="black"/>
<rect x="0" y="68" width="160" height="1" fill="black"/>
<rect x="0" y="69" width="160" height="1" fill="black"/>
<rect x="0" y="70" width="160" height="1" fill="black"/>
<rect x="0" y="71" width="160" height="1" fill="black"/>
<rect x="0" y="72" width="160" height="1" fill="black"/>
<rect x="0" y="73" width="160" height="1" fill="black"/>
<rect x="0" y="74" width="160" height="1" fill="black"/>
<rect x="0" y="75" width="160" height="1" fill="black"/>
<rect x="0" y="76" width="160" height="1" fill="black"/>
<rect x="0" y="77" width="160" height="1" fill="black"/>
<rect x="0" y="78" width="160" height="1" fill="black"/>
<rect x="0" y="79" width="160" height="1" fill="black"/>
<rect x="0" y="80" width="160" height="1" fill="black"/>
<rect x="0" y="81" width="160" height="1" fill="black"/>
<rect x="0" y="82" width="160" height="1" fill="black"/>
<rect x="0" y="83" width="160" height="1" fill="black"/>
<rect x="0" y="84" width="160" height="1" fill="black"/>
<rect x="0" y="85" width="160" height="1" fill="black"/>
<rect x="0" y="86" width="160" height="1" fill="black"/>
<rect x="0" y="87" width="160" height="1" fill="black"/>
<rect x="0" y="88" width="160" height="1" fill="black"/>
<rect x="0" y="89" width="160" height="1" fill="black"/>
<rect x="0" y="90" width="160" height="1" fill="black"/>
<rect x="0" y="91" width="160" height="1" fill="black"/>
<rect x="0" y="92" width="160" height="1" fill="black"/>
<rect x="0" y="93" width="160" height="1" fill="black"/>
<rect x="0" y="94" width="160" height="1" fill="black"/>
<rect x="0" y="95" width="160" height="1" fill="black"/>
<rect x="0" y="96" width="160" height="1" fill="black"/>
<rect x="0" y="97" width="160" height="1" fill="black"/>
<rect x="0" y="98" width="160" height="1" fill="black"/>
<rect x="0" y="99" width="160" height="1" fill="black"/>
<rect x="0" y="100" width="160" height="1" fill="black"/>
<rect x="0" y="101" width="160" height="1" fill="black"/>
<rect x="0" y="102" width="160" height="1" fill="black"/>
<rect x="0" y="103" width="160" height="1" fill="black"/>
<rect x="0" y="104" width="160" height="1" fill="black"/>
<rect x="0" y="105" width="160" height="1" fill="black"/>
<rect x="0" y="106" width="160" height="1" fill="black"/>
<rect x="0" y="107" width="160" height="1" fill="black"/>
<rect x="0" y="108" width="160" height="1" fill="black"/>
<rect x="0" y="109" width="160" height="1" fill="black"/>
<rect x="0" y="110" width="160" height="1" fill="black"/>
<rect x="0" y="111" width="158" height="1" fill="black"/>
<rect x="0" y="112" width="156" height="1" fill="black"/>
<rect x="0" y="113" width="154" height="1" fill="black"/>
<rect x="0" y="114" width="152" height="1" fill="black"/>
<rect x="0" y="115" width="150" height="1" fill="black"/>
<rect x="0" y="116" width="148" height="1" fill="black"/>
<rect x="0" y="117" width="146" height="1" fill="black"/>
<rect x="0" y="118" width="144" height="1" fill="black"/>
<rect x="2" y="119" width="140" height="1" fill="black"/>
<rect x="4" y="120" width="136" height="1" fill="black"/>
<rect x="6" y="121" width="132" height="1" fill="black"/>
<rect x="8" y="122" width="128" height="1" fill="black"/>
<rect x="10" y="123" width="124" height="1" fill="black"/>
<rect x="12" y="124" width="120" height="1" fill="black"/>
<rect x="14" y="125" width="116" height="1" fill="black"/>
<rect x="16" y="126" width="112" height="1" fill="black"/>
<rect x="18" y="127" width="108" height="1" fill="black"/>
<rect x="18" y="128" width="106" height="1" fill="black"/>
<rect x="19" y="129" width="103" height="1" fill="black"/>
<rect x="21" y="130" width="4" height="1" fill="black"/>
<rect x="27" y="130" width="93" height="1" fill="black"/>
<rect x="29" y="131" width="89" height="1" fill="black"/>
<rect x="31" y="132" width="85" height="1" fill="black"/>
<rect x="33" y="133" width="81" height="1" fill="black"/>
<rect x="35" y="134" width="77" height="1" fill="black"/>
<rect x="37" y="135" width="73" height="1" fill="black"/>
<rect x="39" y="136" width="71" height="1" fill="black"/>
<rect x="41" y="137" width="68" height="1" fill="black"/>
<rect x="42" y="138" width="67" height="1" fill="black"/>
<rect x="42" y="139" width="67" height="1" fill="black"/>
<rect x="42" y="140" width="66" height="1" fill="black"/>
<rect x="42" y="141" width="64" height="1" fill="black"/>
<rect x="42" y="142" width="62" height="1" fill="black"/>
<rect x="44" y="143" width="58" height="1" fill="black"/>
<rect x="46" y="144" width="3" height="1" fill="black"/>
<rect x="52" y="144" width="48" height="1" fill="black"/>
<rect x="54" y="145" width="44" height="1" fill="black"/>
<rect x="56" y="146" width="40" height="1" fill="black"/>
<rect x="58" y="147" width="36" height="1" fill="black"/>
<rect x="60" y="148" width="32" height="1" fill="black"/>
<rect x="62" y="149" width="28" height="1" fill="black"/>
<rect x="64" y="150" width="24" height="1" fill="black"/>
<rect x="66" y="151" width="20" height="1" fill="black"/>
<rect x="68" y="152" width="16" height="1" fill="black"/>
<rect x="68" y="153" width="14" height="1" fill="black"/>
</svg>